<svg width="390" height="390" viewBox="0 0 390 390" fill="none" xmlns="http://www.w3.org/2000/svg">
<rect width="390" height="390" fill="white"/>
<ellipse cx="83.5" cy="194.5" rx="44.5" ry="44.5" transform="rotate(-90 83.5 194.5)" fill="#6B16D8"/>
<rect x="136.344" y="223.703" width="59.7969" height="19.4687" transform="rotate(-90 136.344 223.703)" fill="#6B16D8"/>
<path d="M205.813 197.471V208.859H199.883V197.314C199.883 195.638 199.621 194.408 199.098 193.622C198.6 192.837 197.776 192.444 196.624 192.444C195.498 192.444 194.49 192.876 193.6 193.74C192.736 194.578 192.304 195.821 192.304 197.471V208.859H186.413V187.731H192.304V190.127C193.927 188.294 195.786 187.378 197.88 187.378C199.216 187.378 200.42 187.771 201.493 188.556C202.593 189.342 203.418 190.297 203.968 191.423C204.779 190.14 205.866 189.145 207.227 188.438C208.615 187.731 210.002 187.378 211.39 187.378C213.877 187.378 215.88 188.124 217.398 189.616C218.917 191.083 219.676 193.216 219.676 196.018V208.859H213.746V197.314C213.746 194.067 212.555 192.444 210.172 192.444C208.994 192.444 207.973 192.876 207.109 193.74C206.245 194.578 205.813 195.821 205.813 197.471ZM243.333 205.796C240.95 208.048 238.149 209.174 234.929 209.174C231.735 209.174 229.091 208.192 226.996 206.228C224.902 204.238 223.854 201.581 223.854 198.256C223.854 194.931 224.915 192.287 227.035 190.323C229.182 188.36 231.709 187.378 234.615 187.378C237.521 187.378 239.982 188.255 241.998 190.009C244.04 191.763 245.061 194.172 245.061 197.235V200.377H229.667C229.85 201.529 230.452 202.471 231.473 203.204C232.494 203.937 233.646 204.304 234.929 204.304C236.997 204.304 238.699 203.61 240.034 202.223L243.333 205.796ZM239.092 196.175C238.961 194.918 238.489 193.949 237.678 193.269C236.866 192.588 235.871 192.248 234.693 192.248C233.541 192.248 232.481 192.601 231.512 193.308C230.544 194.015 229.981 194.97 229.824 196.175H239.092ZM268.709 197.471V208.859H262.779V197.314C262.779 195.638 262.517 194.408 261.993 193.622C261.496 192.837 260.671 192.444 259.519 192.444C258.393 192.444 257.385 192.876 256.495 193.74C255.631 194.578 255.199 195.821 255.199 197.471V208.859H249.309V187.731H255.199V190.127C256.823 188.294 258.681 187.378 260.776 187.378C262.111 187.378 263.315 187.771 264.389 188.556C265.488 189.342 266.313 190.297 266.863 191.423C267.674 190.14 268.761 189.145 270.122 188.438C271.51 187.731 272.898 187.378 274.285 187.378C276.772 187.378 278.775 188.124 280.294 189.616C281.812 191.083 282.571 193.216 282.571 196.018V208.859H276.641V197.314C276.641 194.067 275.45 192.444 273.068 192.444C271.89 192.444 270.869 192.876 270.005 193.74C269.141 194.578 268.709 195.821 268.709 197.471ZM300.102 187.378C302.668 187.378 304.906 188.386 306.817 190.402C308.729 192.392 309.684 194.957 309.684 198.099C309.684 201.241 308.702 203.872 306.739 205.993C304.775 208.113 302.537 209.174 300.023 209.174C297.536 209.174 295.468 208.139 293.819 206.071V208.859H287.928V179.72H293.819V190.088C295.442 188.281 297.536 187.378 300.102 187.378ZM293.74 198.335C293.74 200.036 294.211 201.437 295.154 202.537C296.123 203.61 297.288 204.147 298.649 204.147C300.01 204.147 301.202 203.61 302.223 202.537C303.244 201.437 303.754 200.036 303.754 198.335C303.754 196.633 303.257 195.206 302.262 194.054C301.267 192.902 300.076 192.326 298.688 192.326C297.301 192.326 296.123 192.902 295.154 194.054C294.211 195.18 293.74 196.607 293.74 198.335ZM332.384 205.796C330.001 208.048 327.2 209.174 323.98 209.174C320.785 209.174 318.141 208.192 316.047 206.228C313.952 204.238 312.905 201.581 312.905 198.256C312.905 194.931 313.965 192.287 316.086 190.323C318.233 188.36 320.759 187.378 323.665 187.378C326.571 187.378 329.032 188.255 331.048 190.009C333.09 191.763 334.112 194.172 334.112 197.235V200.377H318.717C318.9 201.529 319.503 202.471 320.524 203.204C321.545 203.937 322.697 204.304 323.98 204.304C326.048 204.304 327.75 203.61 329.085 202.223L332.384 205.796ZM328.142 196.175C328.011 194.918 327.54 193.949 326.729 193.269C325.917 192.588 324.922 192.248 323.744 192.248C322.592 192.248 321.532 192.601 320.563 193.308C319.594 194.015 319.031 194.97 318.874 196.175H328.142ZM349.473 192.915C347.719 192.915 346.41 193.544 345.546 194.8C344.682 196.031 344.25 197.667 344.25 199.709V208.859H338.359V187.731H344.25V190.52C345.009 189.656 345.952 188.923 347.077 188.321C348.229 187.718 349.394 187.404 350.573 187.378L350.612 192.915H349.473Z" fill="#6B16D8"/>
</svg>
